<?xml version="1.0" encoding="utf-8"?>
<!-- Generator: Adobe Illustrator 16.0.0, SVG Export Plug-In . SVG Version: 6.00 Build 0)  -->
<!DOCTYPE svg PUBLIC "-//W3C//DTD SVG 1.1//EN" "http://www.w3.org/Graphics/SVG/1.1/DTD/svg11.dtd">
<svg version="1.1" id="Layer_2" xmlns="http://www.w3.org/2000/svg" xmlns:xlink="http://www.w3.org/1999/xlink" x="0px" y="0px"
	 width="360px" height="40px" viewBox="0 0 360 40" enable-background="new 0 0 360 40" xml:space="preserve">
<linearGradient id="SVGID_1_" gradientUnits="userSpaceOnUse" x1="4.541" y1="20.3813" x2="356.4033" y2="20.3813">
	<stop  offset="0" style="stop-color:#F16722"/>
	<stop  offset="1" style="stop-color:#F58A1F"/>
</linearGradient>
<path fill="url(#SVGID_1_)" d="M36.73,4.729v31.253c0,1.196-0.572,1.507-1.508,1.507H30.23c-0.937,0-1.509-0.311-1.509-1.507V18.353
	l-5.2,9.102c-0.26,0.416-0.728,1.092-1.508,1.092h-2.6c-0.78,0-1.196-0.676-1.457-1.092l-5.252-9.102v17.629
	c0,1.196-0.572,1.507-1.508,1.507H6.049c-0.936,0-1.508-0.311-1.508-1.507V4.729c0-0.937,0.312-1.509,1.508-1.509h5.148
	c1.768,0,1.977,1.145,2.393,1.77l7.124,12.791L27.89,4.989c0.364-0.625,0.624-1.77,2.341-1.77h4.992
	C36.418,3.22,36.73,3.792,36.73,4.729z M70.738,31.718v4.264c0,0.936-0.312,1.507-1.509,1.507H45.933
	c-1.196,0-1.508-0.571-1.508-1.507V4.78c0-0.936,0.312-1.508,1.508-1.508h22.413c1.196,0,1.508,0.572,1.508,1.508v4.316
	c0,0.936-0.312,1.508-1.508,1.508H52.641v5.668h13.938c1.195,0,1.508,0.572,1.508,1.508v4.057c0,0.936-0.312,1.508-1.508,1.508
	H52.641v6.865h16.589C70.426,30.21,70.738,30.782,70.738,31.718z M103.134,14.974V25.79c0,8.164-7.8,11.698-13.988,11.698H77.497
	c-1.196,0-1.509-0.571-1.509-1.507V4.78c0-0.936,0.312-1.508,1.509-1.508h11.648C95.334,3.272,103.134,6.86,103.134,14.974z
	 M94.97,15.7c0-3.275-2.393-5.199-5.824-5.199h-4.992v19.76h4.992c3.432,0,5.824-1.871,5.824-5.199V15.7z M125.129,31.874v4.107
	c0,0.936-0.312,1.507-1.508,1.507h-14.717c-1.195,0-1.508-0.571-1.508-1.507v-4.107c0-0.937,0.312-1.508,1.508-1.508h3.276V10.501
	h-3.172c-1.196,0-1.509-0.572-1.509-1.508V4.78c0-0.936,0.312-1.508,1.509-1.508h14.456c1.196,0,1.508,0.572,1.508,1.508v4.213
	c0,0.936-0.312,1.508-1.508,1.508h-3.12v19.865h3.276C124.817,30.366,125.129,30.938,125.129,31.874z M205.865,37.488h-5.46
	c-1.145,0-1.561-0.311-1.977-1.559l-1.455-4.108h-12.741l-1.456,4.108c-0.416,1.248-0.832,1.559-1.976,1.559h-5.46
	c-1.145,0-1.145-0.831-0.885-1.454l11.545-31.15c0.416-1.092,0.988-1.611,2.132-1.611h4.992c1.144,0,1.664,0.52,2.132,1.611
	l11.492,31.15C207.01,36.657,207.01,37.488,205.865,37.488z M194.529,24.542l-3.9-11.493l-3.9,11.493H194.529z M237.169,15.337
	c0,7.229-4.783,12.012-13.676,12.012h-4.992v8.633c0,1.196-0.572,1.507-1.508,1.507h-5.148c-0.937,0-1.508-0.311-1.508-1.507V4.78
	c0-0.936,0.312-1.508,1.508-1.508h11.7C232.489,3.272,237.169,8.161,237.169,15.337z M229.317,15.493
	c0-2.705-1.769-4.889-5.824-4.889h-4.992v9.725h4.992C227.549,20.329,229.317,18.093,229.317,15.493z M258.332,31.874v4.107
	c0,0.936-0.312,1.507-1.508,1.507h-14.717c-1.196,0-1.508-0.571-1.508-1.507v-4.107c0-0.937,0.312-1.508,1.508-1.508h3.276V10.501
	h-3.172c-1.196,0-1.508-0.572-1.508-1.508V4.78c0-0.936,0.312-1.508,1.508-1.508h14.456c1.196,0,1.509,0.572,1.509,1.508v4.213
	c0,0.936-0.312,1.508-1.509,1.508h-3.12v19.865h3.276C258.021,30.366,258.332,30.938,258.332,31.874z M291.353,31.718v4.264
	c0,0.936-0.312,1.507-1.509,1.507h-23.297c-1.196,0-1.508-0.571-1.508-1.507V4.78c0-0.936,0.312-1.508,1.508-1.508h22.413
	c1.196,0,1.508,0.572,1.508,1.508v4.316c0,0.936-0.312,1.508-1.508,1.508h-15.705v5.668h13.938c1.195,0,1.508,0.572,1.508,1.508
	v4.057c0,0.936-0.312,1.508-1.508,1.508h-13.938v6.865h16.589C291.04,30.21,291.353,30.782,291.353,31.718z M324.372,4.78v31.201
	c0,0.936-0.312,1.507-1.508,1.507h-4.732c-1.3,0-1.664-0.727-2.34-1.767l-11.024-17.836v18.096c0,1.196-0.572,1.507-1.509,1.507
	h-5.147c-0.937,0-1.509-0.311-1.509-1.507V4.78c0-0.936,0.312-1.508,1.509-1.508h4.888c1.301,0,1.664,0.729,2.34,1.768
	l11.025,17.785V4.78c0-1.195,0.571-1.508,1.508-1.508h4.992C323.8,3.272,324.372,3.585,324.372,4.78z M356.403,27.349
	c0,7.385-5.824,10.921-13.832,10.921c-6.5,0-13.988-3.743-13.988-11.024c0-1.195,0.312-1.455,1.508-1.455h5.044
	c1.196,0,1.769,0.155,1.872,1.455c0.053,0.676,0.312,1.352,0.988,2.133c1.04,1.248,3.172,1.715,5.096,1.715
	c2.809,0,5.097-0.623,5.097-3.535s-4.628-2.965-9.048-4.369c-5.253-1.664-10.089-3.744-10.089-10.348
	c0-6.76,6.136-10.088,12.637-10.348c6.604,0,13.832,3.016,13.832,9.879c0,1.248-0.312,1.457-1.508,1.457h-5.097
	c-0.987,0-1.144-0.729-1.403-1.404c-0.208-0.52-0.468-0.936-1.093-1.561c-0.987-0.936-2.859-1.404-4.42-1.404
	c-1.716,0-4.576,0.677-4.576,3.018c0,3.172,7.645,4.315,9.725,5.147C350.892,18.769,356.403,20.276,356.403,27.349z M141.248,24.999
	l3.9-11.722l2.204,6.379l3.844-10.866l-1.42-4.015c-0.468-1.092-0.987-1.776-2.132-1.776h-4.992c-1.145,0-1.716,0.656-2.132,1.748
	l-11.545,30.974c-0.26,0.623-0.26,1.278,0.884,1.278h5.461c1.144,0,1.56,0.022,1.976-1.226l1.456-3.774h4.233l2.589-7H141.248z
	 M163.017,17.625c-0.671-0.269-1.923-0.57-3.309-0.962l-2.533,7.123c3.645,0.898,6.883,1.336,6.883,3.771
	c0,2.912-2.289,3.535-5.097,3.535c-1.418,0-2.945-0.257-4.068-0.889l-2.491,7.003c1.941,0.705,4.036,1.062,6.039,1.062
	c8.009,0,13.833-3.536,13.833-10.921C172.273,20.276,166.761,18.769,163.017,17.625z M162.289,10.864
	c0.624,0.625,0.884,1.126,1.092,1.646c0.261,0.676,0.416,1.489,1.404,1.489h5.097c1.195,0,1.508-0.294,1.508-1.542
	c0-4.475-3.079-7.347-7.048-8.78l-2.456,6.885C162.031,10.663,162.168,10.749,162.289,10.864z"/>
</svg>
